<?xml version="1.0" encoding="UTF-8"?>
<svg id="Lag_1" data-name="Lag 1" xmlns="http://www.w3.org/2000/svg" viewBox="0 0 490.84 359.63">
  <defs>
    <style>
      .cls-1 {
        fill: #040102;
      }

      .cls-2 {
        fill: #003633;
      }

      .cls-3 {
        fill: #ee5336;
        font-family: Noka-Black, Noka;
        font-size: 29px;
        font-weight: 800;
      }

      .cls-4 {
        fill: #fff1e4;
      }

      .cls-5 {
        stroke-width: .87px;
      }

      .cls-5, .cls-6, .cls-7, .cls-8, .cls-9 {
        stroke-miterlimit: 10;
      }

      .cls-5, .cls-7 {
        fill: #fff;
        stroke: #2f0d00;
      }

      .cls-6 {
        fill: #5a6c30;
        stroke: #002f2e;
      }

      .cls-6, .cls-9 {
        stroke-width: 2px;
      }

      .cls-8 {
        fill: #454f25;
        stroke: #003633;
      }

      .cls-10 {
        fill: #c6a235;
      }

      .cls-9 {
        fill: none;
        stroke: #fff1e4;
      }

      .cls-11 {
        fill: #002f2e;
      }
    </style>
  </defs>
  <path class="cls-6" d="M98.29,287.72c-.55,2.49-1.38,6.05-4.05,9-2.61,2.88-6.1,4.21-15.3,5.4-4.59.59-11.13,1.21-19.38.9-4.2-.17-8.85-.57-13.91-1.35-5.21-.8-9.58-1.8-12.6-5.4-.42-.5-1.97-2.42-3.15-7.2-.84-3.44-1.81-9.6,0-17.69-.3-22.65-.6-45.29-.9-67.94-.1-13.05-.2-26.09-.3-39.14.63-5.75,2.26-9.85,3.57-12.45,3.77-7.51,8.29-9.56,10.12-17.21.29-1.23.38-3.4.56-7.76.37-8.94.14-14.87.11-18.56-.04-6.93.61-9.37,2.03-22.15.79-7.17,1.83-17.63,2.7-30.71-.63-.29-1.51-.83-2.03-1.8-.47-.89-.55-2,.56-5.73,1.41-4.68,2.45-5.99,1.69-7.65-.43-.96-1.06-1.14-1.24-2.25-.27-1.75.99-3.22,1.13-3.38,1.26-1.42,3.1-1.67,4.16-1.8,1.02-.12,1.98-.22,2.89-.3,5.76-.51,9.63-.19,16.23.3.88.07,2.79.21,4.28,1.58.24.22,1.72,1.58,1.57,3.26-.13,1.38-1.23,1.54-1.69,2.92-.48,1.47.43,2.24,1.58,5.63.93,2.74,1.65,4.97.78,7.08-.41,1.01-1.07,1.71-1.57,2.14.68,13.06,2.07,23.46,3.26,30.71,1.53,9.31,2.56,12.47,2.7,19.79.1,4.99-.27,9.16,0,18.9.14,5.08.21,7.62.45,8.55,2.17,8.39,8.5,9.8,12.6,18.44,1.11,2.36,2.45,6.05,2.7,11.25-.28,16.6-.4,30.67-.45,41.39-.23,43-.34,64.49.45,67.49.37,1.39,2.17,7.96.45,15.74Z"/>
  <g>
    <path class="cls-10" d="M456,164.54c-.84,1.1-2.9.82-5.01.53-4.45-.61-5.93-2.26-6.99-1.55-1.98,1.32,1.71,8.11-.11,9.51-2.09,1.61-8.06-6.48-12.04-5.04-.49.18-.95.5-1.36.94-1.9,2.05-2.86,6.69-2.85,11.49.02,6.3,1.73,12.88,5.24,14.28,2.9,1.16,9.34-.27,12.84-1.49,1.16-.4,3.37-1.25,5.51-.34,1.28.54,2.74,1.81,2.52,2.75-.43,1.81-6.62.39-8.6,3.67-.71,1.17-.61,2.51-.57,2.86.24,2.34,2.15,3.04,2.63,4.59.89,2.85-3.71,6.28-5.61,8.37-5.95,6.52.85,14.81-.27,29.62-1.09,14.39-8.54,20.07-9.71,36.88-.43,6.17.34,8.92,1.38,11,2.8,5.59,8.22,7.52,7.68,10.89-.27,1.68-1.85,3.31-3.44,3.67-1.9.44-2.88-1.15-4.82-.8-1.77.32-3.45,2.11-3.89,3.9-1.08,4.31,5.55,6.63,5.5,12.27-.03,3.29-2.34,7.12-5.27,7.45-2.53.28-5.22-2.05-6.08-4.59-.91-2.68.79-3.95,1.49-9.4.46-3.57.93-7.2-1.15-9.06-1.7-1.52-4.59-1.37-6.3-.91-2.94.78-3.95,2.9-5.16,2.4-1.37-.55-.28-3.33-1.95-5.27-1.89-2.2-6.52-2.43-9.4-.57-3.56,2.29-2.03,6.23-4.82,7.79-3.76,2.12-7.16-4.7-16.87-5.76-4.85-.53-7.84.45-13.51-1.4-1.36-.44-2.7-1.13-4.39-2.24-10.22-6.71-9.32-17.03-17.49-20.53-.32-.14-5.55-2.29-10.22-.1-4.95,2.31-4.34,7.19-11.35,13.41-1.84,1.63-6.21,5.5-9.17,4.13-1.13-.52-1.96-1.76-2.18-2.98-.69-3.78,4.47-6.58,3.7-8.17-1.02-2.07-10.3,1.61-11.61-.78-.61-1.09.7-3.06,1.83-4.12,2.33-2.2,5.17-1.81,8.49-2.3,4.23-.62,9.61-2.72,12.03-5.73,3.42-4.24-.56-8.38-.68-19.49-.16-13.6,5.67-19.47,1.37-25.68-1.35-1.96-3-2.84-6.3-4.59-11.84-6.28-22.97-3.46-23.74-6.76-.3-1.3,1.18-2.78,1.49-3.1,2.33-2.33,5.72-1.11,6.31-2.52.51-1.22-1.37-3.73-3.78-4.82-3.07-1.38-4.7.56-8.03-.8-.67-.27-3.16-1.4-4.36-4.13-.32-.73-1.24-3.16-.11-5.73,1.01-2.31,3.49-4.28,5.9-4.14,3.52.2,4.11,4.74,8.43,5.17.42.05,2.8.24,3.9-1.14.89-1.12.17-2.29.69-2.87,1.81-2.02,13.08,9.64,19.72,7,4.57-1.83,6.34-10.21,4.89-16.32-1.18-4.96-4.38-7.93-6.15-9.6-1.13-1.05-8.4-7.88-16.28-6.42-3.76.7-6.27,3.02-8.49,1.61-1.04-.67-1.87-2.06-1.6-3.21.5-2.22,4.79-2.61,4.7-3.33-.13-1.01-8.64,1.01-12.5-3.21-1.12-1.22-2.09-3.23-1.49-4.81.83-2.2,4.5-3.1,7.34-2.87,6.4.53,8.68,6.85,13.87,5.96,1.76-.3,2.95-1.27,3.21-1.49,2.35-1.97,2.56-5.01,2.59-5.83-.38-1.55-.83-3.94-.79-6.85.13-12.07,8.47-23.73,16.81-35.16,3.46-4.74,5.74-7.41,4.89-10.4-1.07-3.78-5.95-3.86-10.32-10.43-1.36-2.05-2.85-4.36-2.17-6.88.7-2.64,3.5-4.44,5.96-4.82,4.85-.74,9.85,3.81,11.46,8.26.36.97.14.82,1.15,8.6.64,4.95.96,6.82,1.83,6.99,1.48.3,2.99-4.57,4.82-4.24.95.17,1.43,1.63,1.71,2.48,1.05,3.19-.23,5.16.12,6.46.18.65.79,1.25,1.74,1.78,6.11,3.42,26.27,4.1,34.77-2.83,1.33-1.08,2.38-2.35,3.04-3.83,2.2-4.94-.54-10.77,4.13-16.21.69-.8,2.77-3.23,4.82-2.76,2.13.49,2.93,3.8,2.98,4.02.69,2.97-1.12,3.99-.8,7.22.03.37.52,4.77,3.47,5.91,2.36.91,5.44-.58,6.92-2.61,1.86-2.56.33-4.79,2.33-7.54.82-1.12,2.55-2.78,4.25-2.87,4.15-.21,6.18,9.06,15.02,28.59,5.03,11.13,7.11,14.17,6.42,19.79-.66,5.32-3.15,7.64-1.72,11.93,1.39,4.2,5.74,7.85,9.4,9.74,3.01,1.56,5.3,1.78,7.11,4.36,1.01,1.45,2.06,3.9,1.1,5.15Z"/>
    <path class="cls-4" d="M453.4,194.82c-.43,1.81-6.62.39-8.6,3.67-.71,1.17-.61,2.51-.57,2.86.24,2.34,2.15,3.04,2.63,4.59.89,2.85-3.71,6.28-5.61,8.37-5.95,6.52.85,14.81-.27,29.62-1.09,14.39-8.54,20.07-9.71,36.88-.43,6.17.34,8.92,1.38,11,2.8,5.59,8.22,7.52,7.68,10.89-.27,1.68-1.85,3.31-3.44,3.67-1.9.44-2.88-1.15-4.82-.8-1.77.32-3.45,2.11-3.89,3.9-1.08,4.31,5.55,6.63,5.5,12.27-.03,3.29-2.34,7.12-5.27,7.45-2.53.28-5.22-2.05-6.08-4.59-.91-2.68.79-3.95,1.49-9.4.46-3.57.93-7.2-1.15-9.06-1.7-1.52-4.59-1.37-6.3-.91-2.94.78-3.95,2.9-5.16,2.4-1.37-.55-.28-3.33-1.95-5.27-1.89-2.2-6.52-2.43-9.4-.57-3.56,2.29-2.03,6.23-4.82,7.79-3.76,2.12-7.16-4.7-16.87-5.76-4.85-.53-7.84.45-13.51-1.4-1.36-.44-2.7-1.13-4.39-2.24-10.22-6.71-9.32-17.03-17.49-20.53-.32-.14-5.55-2.29-10.22-.1-4.95,2.31-4.34,7.19-11.35,13.41-1.84,1.63-6.21,5.5-9.17,4.13-1.13-.52-1.96-1.76-2.18-2.98-.69-3.78,4.47-6.58,3.7-8.17-1.02-2.07-10.3,1.61-11.61-.78-.61-1.09.7-3.06,1.83-4.12,2.33-2.2,5.17-1.81,8.49-2.3,4.23-.62,9.61-2.72,12.03-5.73,3.42-4.24-.56-8.38-.68-19.49-.16-13.6,5.67-19.47,1.37-25.68-1.35-1.96-3-2.84-6.3-4.59-11.84-6.28-22.97-3.46-23.74-6.76-.3-1.3,1.18-2.78,1.49-3.1,2.33-2.33,5.72-1.11,6.31-2.52.51-1.22-1.37-3.73-3.78-4.82-3.07-1.38-4.7.56-8.03-.8-.67-.27-3.16-1.4-4.36-4.13-.32-.73-1.24-3.16-.11-5.73,1.01-2.31,3.49-4.28,5.9-4.14,3.52.2,4.11,4.74,8.43,5.17.42.05,2.8.24,3.9-1.14.89-1.12.17-2.29.69-2.87,1.81-2.02,13.08,9.64,19.72,7,4.57-1.83,6.34-10.21,4.89-16.32-1.18-4.96-4.38-7.93-6.15-9.6-1.13-1.05-8.4-7.88-16.28-6.42-3.76.7-6.27,3.02-8.49,1.61-1.04-.67-1.87-2.06-1.6-3.21.5-2.22,4.79-2.61,4.7-3.33-.13-1.01-8.64,1.01-12.5-3.21-1.12-1.22-2.09-3.23-1.49-4.81.83-2.2,4.5-3.1,7.34-2.87,6.4.53,8.68,6.85,13.87,5.96,1.76-.3,2.95-1.27,3.21-1.49,2.35-1.97,2.56-5.01,2.59-5.83-.38-1.55-.83-3.94-.79-6.85.13-12.07,8.47-23.73,16.81-35.16,3.46-4.74,5.74-7.41,4.89-10.4-1.07-3.78-5.95-3.86-10.32-10.43-1.36-2.05-2.85-4.36-2.17-6.88.7-2.64,3.5-4.44,5.96-4.82,4.85-.74,9.85,3.81,11.46,8.26.36.97.14.82,1.15,8.6.64,4.95.96,6.82,1.83,6.99,1.48.3,2.99-4.57,4.82-4.24.95.17,1.43,1.63,1.71,2.48,1.05,3.19-.23,5.16.12,6.46.18.65.79,1.25,1.74,1.78-18.77,19.44-35.67,44.41-31.2,50.96,2.18,3.2,7.54-.79,14.44,2.75,12.97,6.66,17.96,33,8.26,43.34-7.66,8.16-22.99,4.76-23.39,8.25-.31,2.73,9.2,2.77,15.13,9.64,9.55,11.04-2.25,25.8,6.2,41.27,3.45,6.34,9.41,9.73,21.32,16.51,16.03,9.12,30.13,11.57,37.83,12.38,12.34,1.29,20.41,2.14,24.77-2.75,4.81-5.4,1.28-13.53-2.75-33.71-3.43-17.14-5.97-29.83-5.51-42.65.62-16.91,6.02-22.01,9.78-32.05.02,6.3,1.73,12.88,5.24,14.28,2.9,1.16,9.34-.27,12.84-1.49,1.16-.4,3.37-1.25,5.51-.34,1.28.54,2.74,1.81,2.52,2.75Z"/>
    <path class="cls-4" d="M455.65,163.74c-.84,1.1-2.9.82-5.01.53-4.45-.61-5.93-2.26-6.99-1.55-1.98,1.32,1.71,8.11-.11,9.51-2.09,1.61-8.06-6.48-12.04-5.04-.49.18-.95.5-1.36.94.18-1.23.32-2.54.44-3.92.41-4.71,3.17-36.99-15.82-52.97-8.85-7.45-15.47-5.5-27.58-8.39,1.33-1.08,2.38-2.35,3.04-3.83,2.2-4.94-.54-10.77,4.13-16.21.69-.8,2.77-3.23,4.82-2.76,2.13.49,2.93,3.8,2.98,4.02.69,2.97-1.12,3.99-.8,7.22.03.37.52,4.77,3.47,5.91,2.36.91,5.44-.58,6.92-2.61,1.86-2.56.33-4.79,2.33-7.54.82-1.12,2.55-2.78,4.25-2.87,4.15-.21,6.18,9.06,15.02,28.59,5.03,11.13,7.11,14.17,6.42,19.79-.66,5.32-3.15,7.64-1.72,11.93,1.39,4.2,5.74,7.85,9.4,9.74,3.01,1.56,5.3,1.78,7.11,4.36,1.01,1.45,2.06,3.9,1.1,5.15Z"/>
    <g>
      <path class="cls-2" d="M389.82,100.17c1.39-2.93,2.59-5.97,3.36-9.12.56-2.28.55-4.76,1.38-6.96.54-1.44,1.54-2.87,3.06-3.36,1.33-.42,2.5.16,3.12,1.37,1.32,2.55-.02,5.11-.42,7.67-.53,3.35,1.15,6.18,3.62,8.31,1.21,1.04,2.99-.72,1.77-1.77s-2.36-2.25-2.81-3.82c-.35-1.24-.15-2.41.2-3.62.82-2.88,1.24-6.23-.68-8.79-2.14-2.84-6.13-2.39-8.38.1-2.1,2.33-2.29,5.15-2.82,8.06-.66,3.71-1.96,7.27-3.56,10.67-.68,1.45,1.47,2.72,2.16,1.26h0Z"/>
      <path class="cls-2" d="M436.63,143.63c1.64,2.97,3.74,5.69,6.23,7.99s5.49,4.09,8.58,5.74c1.44.77,2.98,1.71,3.5,3.36s-.23,2.71-1.89,2.71c-1.33,0-2.63-.44-3.67-1.28-.95-.76-1.78-1.5-3.06-1.58-2.73-.19-5.51,2.04-5.36,4.88.06,1.22.55,2.36,1.11,3.43.5.96,1.06,2.06,1.7,2.94.34.46-.05.14.33-.29-.02.02.43-.39.24-.17.06-.07.27.03-.04-.02-.36-.06.15.06-.25-.03-1.07-.26-2.09-.66-3.08-1.12-5.93-2.69-11.54-6.19-17.09-9.56-1.38-.84-2.64,1.32-1.26,2.16,5.4,3.28,10.84,6.64,16.57,9.32,1.54.72,4.8,2.64,6.51,1.34s-.17-3.6-.91-4.85c-.59-.99-1.36-2.19-1.32-3.39.04-1.33,1.75-2.49,3.02-2.08.48.15.86.58,1.24.89.64.52,1.3.96,2.06,1.27,1.31.53,2.82.78,4.22.59,3.51-.49,4.34-4.28,2.82-7.07-.96-1.76-2.74-2.87-4.47-3.77s-3.59-1.89-5.24-3.1c-3.45-2.52-6.26-5.82-8.32-9.55-.78-1.41-2.94-.15-2.16,1.26h0Z"/>
      <path class="cls-2" d="M427.15,195.03c4.4-.12,8.81-.28,13.2-.68,2.2-.2,4.46-.4,6.6-.96.93-.24,1.78-.62,2.77-.64.85-.02,2.35.16,2.53,1.24.19,1.15-1.34,1.87-2.21,2.11-2.35.64-4.83.34-6.7,2.2-1.34,1.34-1.69,3.36-.56,4.94.59.82,1.44,1.36,2.25,1.93.97.69,1.67,1.25.97,2.43-1.27,2.15-3.26,3.95-5.49,5.04-1.44.71-.18,2.86,1.26,2.16,2.25-1.1,3.95-2.74,5.48-4.69,1.4-1.78,2.37-3.82.66-5.76-.99-1.12-4.56-2.46-2.81-4.28s5.13-.96,7.28-2.25c1.9-1.14,3.11-3.51,1.81-5.55s-4.02-2.29-6.16-1.82c-1.85.41-3.58.94-5.48,1.17-5.1.6-10.26.76-15.4.9-1.61.04-1.61,2.54,0,2.5h0Z"/>
      <path class="cls-2" d="M430.14,278.85c-.22,4.26-.17,8.81,1.35,12.86.92,2.47,2.33,4.18,4.24,5.93,1.42,1.29,3.05,3.19,2.96,5.23-.04.84-.34,1.86-1.19,2.21-1.09.46-2.47-.22-3.53-.49-2.09-.53-4.18-.29-5.58,1.49-1.2,1.54-1.53,3.64-1.13,5.52,1.01,4.69,6.72,9.07,4.11,14.25-.98,1.94-3.31,3.4-5.41,2.24-1.98-1.09-2.68-3.57-2.63-5.68.13-4.61,3.18-9.19,2.12-13.86-.88-3.88-5.83-5.84-9.39-4.74-1.92.6-3.21,1.98-4.61,3.32-.03.03-.6.45-.6.49.01-.13,1.12-.09.77.19.02-.02-.06-.33-.04-.42.16-.92.06-2.1-.02-3.02-.19-2.16-1.23-3.96-3.37-4.67-2.32-.77-4.99-.21-7.29.39-1.56.4-.9,2.81.66,2.41,1.85-.48,4.73-1.3,6.49-.13,1.57,1.05.93,3.56,1.02,5.14.08,1.38.91,2.9,2.54,2.46,1.35-.36,2.25-1.85,3.27-2.7,1.73-1.43,3.98-1.64,5.98-.61,1.66.86,2.32,2.16,2.25,3.96-.19,5.07-3.54,10.02-1.84,15.15,1.4,4.24,6.03,6.86,9.98,3.94,4.35-3.22,3.56-9.03,1.2-13.23-1.14-2.03-3.01-4.22-2.87-6.68.05-.9.35-1.92,1.05-2.54.93-.8,2.14-.43,3.21-.14,2.11.58,4.42,1,6.07-.83,1.34-1.5,1.56-3.82.91-5.66-.77-2.17-2.3-3.9-4.01-5.38-.93-.81-1.68-1.7-2.27-2.79-2.2-4.06-2.16-9.18-1.92-13.66.08-1.61-2.42-1.6-2.5,0h0Z"/>
      <path class="cls-2" d="M341.91,277.97c-5.23-3.49-11.5.27-14.77,4.61-3.51,4.66-5.93,12.3-12.38,13.65-1.09.23-2.84.34-3.66-.61-1.19-1.37,1.01-3.24,1.85-4.16,1.76-1.93,3.35-5.15.79-7.18-2.13-1.69-4.87-.52-7.15.09-.86.23-2.5.62-3.18-.21-1.18-1.44,1.4-2.69,2.41-2.89,1.79-.36,3.66-.29,5.47-.59s3.46-.76,5.12-1.39c3.41-1.29,6.51-3.19,9.22-5.63,1.2-1.08-.57-2.84-1.77-1.77-2.58,2.32-5.6,4.13-8.89,5.26-1.54.53-3.14.94-4.76,1.17-1.81.27-3.71.15-5.48.62-2.69.72-5.27,3.72-3.47,6.49,1.5,2.32,4.72,1.76,6.92,1.04,1.06-.35,2.62-.94,3.72-.42,1.78.84-.22,3.09-.99,3.9-1.98,2.11-4.14,5.54-1.1,7.83,2.3,1.73,5.62,1.15,8.02-.03,2.89-1.42,5.09-3.98,6.83-6.63,2.09-3.19,3.71-6.84,6.58-9.44,2.48-2.25,6.4-3.57,9.39-1.57,1.34.9,2.6-1.27,1.26-2.16h0Z"/>
      <path class="cls-2" d="M325.51,172.3c-4.67-2.51-9.78-5.26-15.1-6.05-1.34-.2-2.75-.28-4.07.1-1.52.44-2.71,1.46-4.3,1.8-1.32.28-3.84.06-3.29-1.92s3.07-2.32,4.73-2.65c1.17-.23,1.21-2.22,0-2.41-2.34-.38-4.68-.75-7.02-1.13-2.12-.34-4.61-.53-6.37-1.9-1.57-1.23-1.99-3.19-.59-4.73s3.44-1.88,5.38-1.44c3.81.87,6.85,3.7,10.33,5.35,2.24,1.06,4.54,1.2,6.65-.35,2.34-1.73,3.72-4.54,4.7-7.21.56-1.51-1.86-2.16-2.41-.66-.84,2.28-2.21,5.38-4.61,6.36s-5.13-1.36-7.14-2.59c-3.66-2.24-8.07-4.86-12.42-2.84-3.58,1.66-5.18,5.97-2.43,9.14,1.62,1.87,4.05,2.59,6.4,3,2.94.51,5.9.95,8.85,1.42v-2.41c-3.08.6-7.41,2.38-6.56,6.37.79,3.67,5.27,3.61,8.03,2.54.83-.32,1.55-.8,2.34-1.19.27-.14-.09.03.12-.05.12-.04.24-.08.37-.11.38-.09.45-.11.71-.13,1.8-.15,3.62.33,5.32.86,3.87,1.21,7.53,3.07,11.1,4.99,1.42.76,2.68-1.4,1.26-2.16h0Z"/>
      <path class="cls-2" d="M335.25,107.16c1.96-4.53,3.66-10.75-.76-14.45-2.42-2.02-5.36-3.24-7.63-5.48-2.43-2.4-3.97-6.03-1.4-8.92,2.29-2.58,5.97-3.03,8.94-1.43,3.28,1.77,5.21,5.12,5.97,8.67.42,1.97.49,4,.41,6.01-.08,1.88-.6,3.94-.08,5.79.41,1.45,1.61,2.68,3.17,2.83,1.64.16,2.67-.94,3.2-2.37.21-.57.29-1.53,1.07-1.4s1.3,1.08,1.31,1.79c.02,1.74-1.11,3.13-.5,4.94.93,2.78,4.51,3.7,7.02,4.23,1.57.33,2.24-2.08.66-2.41s-3.26-.68-4.53-1.64c-.89-.67-1.01-1.35-.72-2.43.41-1.56.9-3.09.12-4.64-.64-1.26-1.98-2.31-3.43-2.38-1.63-.07-2.63,1.05-3.15,2.48-.22.6-.29,1.56-1.11,1.23-.94-.37-.84-1.81-.79-2.6.26-4.14.56-8.21-.82-12.22-2.21-6.38-9.25-11.83-15.99-8.22-2.9,1.56-4.95,4.65-4.57,8.01.42,3.71,3.19,6.47,6.06,8.57,2.19,1.61,5.53,2.79,6.67,5.45,1.25,2.93-.09,6.58-1.27,9.29-.63,1.46,1.52,2.74,2.16,1.26h0Z"/>
      <path class="cls-2" d="M323.68,225.15c-4.24-2.23-8.56-4.38-13.03-6.12-2.41-.93-4.91-1.79-7.49-2.07-2.17-.24-4.52.94-6.59.18-.87-.32-1.87-1.24-1.11-2.16.61-.75,1.93-.89,2.81-1.02,1.96-.29,4.17-.69,5.16-2.64s-.04-4.01-1.58-5.22c-2.12-1.67-4.82-1.27-7.34-1.39-4.14-.2-9.05-3.83-7.54-8.45.59-1.82,2.16-3.52,4.14-3.72,2.51-.24,4.7,1.98,6.62,3.26s5.25,3.12,7.27.86c.69-.77.86-1.79,1.04-2.77.07-.37.1-.82.28-1.16.13-.25.09-.14.22-.15.35-.02,1.12.59,1.48.84.81.58,1.57,1.23,2.35,1.84,4.3,3.35,9.03,5.51,14.5,5.95,1.6.13,1.6-2.37,0-2.5-5.14-.41-9.5-2.65-13.49-5.81-1.96-1.56-6.06-4.95-7.49-.81-.28.79-.24,1.67-.53,2.45-.12.33-.21.42-.49.63-.04.03.16.02-.16.05-.03,0-.08.06-.37,0-.1-.02-.37-.08-.54-.13-1.08-.32-2.07-.98-2.99-1.6-2.15-1.46-4.2-3.24-6.91-3.47-2.13-.18-4.22.87-5.6,2.46-3.05,3.51-2.58,8.53.78,11.66,1.63,1.52,3.74,2.54,5.94,2.9,2.36.38,6.11-.65,7.8,1.52,1.85,2.38-2.1,2.78-3.55,3.02-2.02.33-4.37,1.4-4.6,3.69-.26,2.53,2.07,4.17,4.32,4.5,1.55.22,2.88-.13,4.37-.37-.35.06.21-.01.31-.01.21,0,.42,0,.62,0,.53.02.86.06,1.32.14,1.44.25,2.85.67,4.23,1.14,5.05,1.72,9.85,4.16,14.55,6.64,1.42.75,2.69-1.41,1.26-2.16h0Z"/>
      <path class="cls-2" d="M404.83,98.44c2.37-.08,4.92-.44,6.83-1.97,1.45-1.16,2.05-2.82,2.4-4.59.43-2.2.83-5.74,3.21-6.78.92-.4,1.91.18,2.63.76,1.03.83,1.9,1.99,2.36,3.23,1.09,2.94-.31,6-2.48,8.03-1.17,1.1.6,2.87,1.77,1.77,2.26-2.12,3.83-5.17,3.56-8.34-.25-2.94-2.08-5.84-4.64-7.32-1.13-.65-2.5-1.01-3.77-.59-1.41.47-2.52,1.58-3.26,2.84-.82,1.39-1.22,2.96-1.55,4.52-.22,1.03-.31,2.17-.74,3.14-1.01,2.24-3.91,2.72-6.31,2.8-1.6.06-1.61,2.56,0,2.5h0Z"/>
    </g>
    <path class="cls-6" d="M379.83,110.05c2.6-.83,5.19-1.67,7.79-2.5.61-2.23,1.21-4.46,1.82-6.69,1.53-1.71,3.07-3.42,4.6-5.14-.2-.33-.48-.82-.8-1.43-1.54-2.96-1.98-5.29-2.89-8.06-3.06-9.25-3.91-13.35-5.44-18.1-2.25-6.97-4.14-9.7-8.29-18.18-3.23-6.6-7.55-16.16-11.97-28.47.35-.56.79-1.41.89-2.5.22-2.27-1.12-4.2-2.79-6.56-2.08-2.91-3.17-3.39-3.13-4.93.04-1.46,1.05-1.93.77-3.29-.34-1.65-2.15-2.53-2.45-2.67-1.82-.88-3.68-.47-4.55-.28-7.49,1.65-11.4,2.48-18.31,5.51-.98.43-2.67,1.2-3.47,2.92-.09.19-.87,1.96-.11,3.56.49,1.01,1.14,1,1.83,1.8,1.2,1.37.58,2.92.59,7.81,0,3.9.4,4.94,1.11,5.66.77.78,1.77,1.04,2.46,1.14,2.94,12.77,4.96,23.09,6.26,30.18,2.32,12.65,2.4,15.18,4.44,21.8.8,2.61,2.07,6.36,3.58,11.66.59,2.08,1.2,4.4,1.66,6.14.95,3.56,1.71,6.52,2.24,8.61,4.35.93,8.7,1.85,13.05,2.78,1.33,2.55,2.65,5.11,3.98,7.66,2.37-2.82,4.75-5.63,7.12-8.45Z"/>
    <path class="cls-6" d="M308.83,152.51c3.97-.99,7.95-1.99,11.92-2.98-.69-3.75-1.38-7.49-2.06-11.24,4.51-1.91,9.02-3.82,13.53-5.73-1.68-2.98-3.36-5.96-5.04-8.94,2.83-4.05,5.66-8.1,8.48-12.15-.54-2.83-1.07-5.66-1.61-8.48-4.05-1.99-8.1-3.97-12.15-5.96-.62,1.29-1.66,3.33-3.1,5.73-3.86,6.45-6.29,8.3-8.37,13.07-.78,1.79-1.75,4.54-2.18,8.25.19,9.48.38,18.96.57,28.43Z"/>
    <path class="cls-6" d="M444.81,147.46c-2.6-1.45-5.2-2.9-7.8-4.36.15-4.43.31-8.87.46-13.3-2.68-.76-5.35-1.53-8.03-2.29l1.61-13.53-12.15-5.27,1.61-13.53c1.38-2.14,2.75-4.28,4.13-6.42,1.83-.92,3.67-1.83,5.5-2.75.38.67.96,1.68,1.72,2.87,4.07,6.36,7.1,8.34,9.52,12.04,1.49,2.28,3.15,5.84,3.55,11.24-.04,11.77-.08,23.54-.11,35.31Z"/>
    <path class="cls-6" d="M317.43,190.23c1.87,1.64,3.75,3.29,5.62,4.93.84,5.27,1.68,10.55,2.52,15.82l12.61,4.13c2.9-5.2,5.81-10.39,8.71-15.59,4.51-1.83,9.02-3.67,13.53-5.5-3.52-5.89-7.03-11.77-10.55-17.66,1.45-5.96,2.9-11.92,4.36-17.89-4.51-2.06-9.02-4.13-13.53-6.19l-13.53,5.73c.69,3.75,1.38,7.49,2.06,11.24-3.97.99-7.95,1.99-11.92,2.98.04,6,.08,12,.11,18Z"/>
    <path class="cls-6" d="M420.96,203.64c.76-3.21,1.53-6.42,2.29-9.63,3.21.54,6.42,1.07,9.63,1.61.61-2.52,1.22-5.04,1.83-7.57,2.45.38,4.89.76,7.34,1.15.15-4.43.31-8.87.46-13.3-2.68-.76-5.35-1.53-8.03-2.29l1.61-13.53-12.15-5.27,1.61-13.53-8.25.46c-3.06,1.91-6.11,3.82-9.17,5.73-2.83,4.05-5.66,8.1-8.48,12.15,1.68,2.98,3.36,5.96,5.04,8.94,4.51,2.06,9.02,4.13,13.53,6.19-1.45,5.96-2.9,11.92-4.36,17.89,2.37,3.67,4.74,7.34,7.11,11.01Z"/>
    <path class="cls-6" d="M323.65,274.3c2.99-2.38,5.97-4.76,8.96-7.15-2.12-3.81-4.24-7.62-6.36-11.42,3.34-1.85,6.69-3.7,10.03-5.55-2.69-1.89-5.37-3.78-8.06-5.67,2.42-4.67,4.83-9.34,7.25-14.01-4.4-1.95-8.8-3.91-13.2-5.86.09,2.6.18,5.19.28,7.79-4.33.92-8.65,1.84-12.98,2.75-3.37-4.14-6.74-8.28-10.12-12.42-2.2-.05-4.39-.11-6.59-.16,10.26,17.23,20.52,34.47,30.78,51.7Z"/>
    <path class="cls-6" d="M436.26,288.54c-2.07-3.61-4.14-7.22-6.21-10.83,1.63-5.1,3.26-10.21,4.89-15.31-3.14-4.05-6.28-8.09-9.42-12.14,1.5-5.53,3.01-11.06,4.51-16.6-1.6-1.12-3.21-2.25-4.81-3.37-.56-2.43-1.11-4.87-1.67-7.3,1.54-2.92,3.08-5.84,4.62-8.75,2.98,1.32,5.95,2.64,8.93,3.96,1.22-2.29,2.44-4.58,3.66-6.87,2.27.98,4.55,1.96,6.82,2.94,2.15,2.05,4.31,4.11,6.46,6.16-5.93,22.7-11.86,45.41-17.79,68.11Z"/>
    <path class="cls-6" d="M368.22,225.43l9.86,6.65c-2.83,3.29-5.66,6.57-8.48,9.86l2.52,11.24,8.94-4.82c2.52,1.76,5.04,3.52,7.57,5.27l9.4-7.34,6.88,7.34c1.3-2.52,2.6-5.04,3.9-7.57,1.76,1.15,3.52,2.29,5.27,3.44.08-1.36.08-2.99-.11-4.82-.2-1.81-.55-3.39-.92-4.7-.11-1.41-.23-2.83-.34-4.24-2.9-2.98-5.81-5.96-8.71-8.94.31-5.35.61-10.7.92-16.05-4.05-3.13-8.1-6.27-12.15-9.4.08-5.73.15-11.47.23-17.2-2.03-.69-4.05-1.38-6.08-2.06-4.32,1.83-8.64,3.67-12.96,5.5l-4.36,8.71c2.6,3.9,5.2,7.8,7.8,11.69-4.43,2.83-8.87,5.66-13.3,8.48,1.38,2.98,2.75,5.96,4.13,8.94Z"/>
    <path class="cls-6" d="M339.45,279.87c3.67.22,7.34.44,11.01.65,1.18-4.16,2.36-8.32,3.55-12.48l10.71,2.55c2.85,2.96,5.71,5.92,8.56,8.89-3.49,2.58-6.97,5.15-10.46,7.73-.01,3.84-.02,7.68-.03,11.52,3.26-.9,6.53-1.81,9.79-2.71,2.07,2.27,4.14,4.55,6.21,6.82,3.6-1.69,7.2-3.38,10.79-5.07,1.69,2.89,3.39,5.79,5.08,8.68,1.83-2.17,3.65-4.34,5.48-6.51,1.46,1.51,2.92,3.02,4.38,4.52-.21,2.26-1.07,8.11-5.75,12.33-1.26,1.14-3.15,2.48-6.46,3.59-3.81,1.27-9.38,2.2-28.08-2.16-9.41-2.19-13.49-3.71-17.31-5.58-7.8-3.84-9.6-6.8-10.27-8.1-1.95-3.8-1.54-7.59-1.08-11.77.6-5.5,2.35-9.89,3.89-12.9Z"/>
    <ellipse class="cls-4" cx="354.16" cy="134.62" rx="3.06" ry="3.36"/>
    <ellipse class="cls-4" cx="358.3" cy="128.26" rx="1.2" ry="1.43"/>
    <ellipse class="cls-4" cx="350.39" cy="127.69" rx="1.78" ry="2.12"/>
    <ellipse class="cls-4" cx="402.84" cy="180.31" rx="2.75" ry="3.38"/>
    <ellipse class="cls-4" cx="398.89" cy="188.11" rx="1.32" ry="1.78"/>
    <ellipse class="cls-4" cx="351.99" cy="252.49" rx="3.26" ry="4.64"/>
    <ellipse class="cls-4" cx="357.79" cy="245.89" rx="1.26" ry="1.66"/>
    <ellipse class="cls-4" cx="350.39" cy="242.28" rx="2.24" ry="2.87"/>
    <ellipse class="cls-4" cx="415" cy="280.94" rx="4.13" ry="4.89"/>
    <ellipse class="cls-4" cx="418.49" cy="270.88" rx="2.12" ry="3.27"/>
    <ellipse class="cls-4" cx="409.61" cy="272.09" rx="1.72" ry="1.61"/>
    <ellipse class="cls-4" cx="405.37" cy="116.74" rx="2.98" ry="3.9" transform="translate(-4.06 218.32) rotate(-30)"/>
    <ellipse class="cls-4" cx="401.24" cy="126.94" rx="2.98" ry="3.78"/>
    <ellipse class="cls-9" cx="373.26" cy="173.72" rx="8.71" ry="9.75"/>
    <circle class="cls-4" cx="379.23" cy="159.5" r="2.41"/>
    <ellipse class="cls-4" cx="375.5" cy="171.77" rx="2.35" ry="3.1"/>
    <ellipse class="cls-10" cx="318.46" cy="163.67" rx="3.9" ry="1.83"/>
    <ellipse class="cls-10" cx="434.64" cy="204.94" rx="2.37" ry="3.06"/>
    <ellipse class="cls-10" cx="428.75" cy="207.62" rx="1.53" ry="1.76"/>
    <ellipse class="cls-10" cx="338.95" cy="272.28" rx="1.91" ry="2.22"/>
  </g>
  <path class="cls-11" d="M8.29,159.67c1.36-8.9,6.75-16.86,14.57-21.34,1.4-.8.14-2.96-1.26-2.16-8.33,4.77-14.27,13.33-15.72,22.83-.24,1.57,2.17,2.25,2.41.66h0Z"/>
  <path class="cls-11" d="M2.12,140.31c3.67-4.48,8.07-8.3,13.04-11.27,1.38-.82.12-2.99-1.26-2.16-5.14,3.07-9.75,7.02-13.55,11.66-.43.52-.51,1.26,0,1.77.44.44,1.34.52,1.77,0h0Z"/>
  <path class="cls-11" d="M96.42,139.43c6.22,2.09,11.37,6.74,14.2,12.64.69,1.45,2.85.18,2.16-1.26-3.11-6.49-8.88-11.5-15.69-13.79-1.53-.51-2.18,1.9-.66,2.41h0Z"/>
  <path class="cls-11" d="M97.03,125.12c5.46-.04,10.68,2.47,14.12,6.69.43.52,1.32.44,1.77,0,.52-.52.43-1.24,0-1.77-3.84-4.71-9.83-7.47-15.89-7.43-1.61.01-1.61,2.51,0,2.5h0Z"/>
  <path class="cls-11" d="M158.4,158.84c1-6.85,3.95-13.31,8.58-18.47,1.07-1.2-.69-2.97-1.77-1.77-4.9,5.47-8.16,12.3-9.22,19.58-.1.67.17,1.33.87,1.54.59.17,1.44-.21,1.54-.87h0Z"/>
  <path class="cls-11" d="M152.87,146.28c2.67-4.33,5.33-8.67,8-13,.85-1.37-1.32-2.63-2.16-1.26-2.67,4.33-5.33,8.67-8,13-.85,1.37,1.32,2.63,2.16,1.26h0Z"/>
  <path class="cls-11" d="M241.5,138.45c5.79,2.5,10.88,6.51,14.55,11.65.39.55,1.09.81,1.71.45.54-.32.84-1.16.45-1.71-3.92-5.48-9.25-9.87-15.45-12.54-.62-.27-1.34-.18-1.71.45-.31.53-.17,1.44.45,1.71h0Z"/>
  <path class="cls-11" d="M244.09,129.24c3.45.55,6.74,1.97,9.44,4.21.52.43,1.26.51,1.77,0,.44-.44.52-1.33,0-1.77-3.02-2.51-6.65-4.23-10.54-4.85-.67-.11-1.34.17-1.54.87-.16.6.2,1.43.87,1.54h0Z"/>
  <path class="cls-8" d="M59.56,303.02c-4.2-.17-8.85-.57-13.91-1.35-5.21-.8-9.58-1.8-12.6-5.4-.42-.5-1.97-2.42-3.15-7.2-.84-3.44-1.81-9.6,0-17.69-.3-22.65-.6-45.29-.9-67.94-.1-13.05-.2-26.09-.3-39.14.63-5.75,2.26-9.85,3.57-12.45,3.77-7.51,8.29-9.56,10.12-17.21.29-1.23.38-3.4.56-7.76.37-8.94.14-14.87.11-18.56-.04-6.93.61-9.37,2.03-22.15.79-7.17,1.83-17.63,2.7-30.71-.63-.29-1.51-.83-2.03-1.8-.47-.89-.55-2,.56-5.73,1.41-4.68,2.45-5.99,1.69-7.65-.43-.96-1.06-1.14-1.24-2.25-.27-1.75.99-3.22,1.13-3.38,1.26-1.42,3.1-1.67,4.16-1.8,1.02-.12,1.98-.22,2.89-.3.02,2.71.03,5.78.05,9.21.02,4.9.03,7.35,0,12.38-.23,33.69-.35,50.54,1.37,61.91,2.07,13.67,4.27,16.91,2.07,24.08-3.02,9.82-9.67,11.94-14.45,21.33-3.97,7.8-2.69,12.84-2.06,31.64.97,29.32-1.7,31.19,0,64.66.94,18.67,1.97,21.94,2.75,24.08,3.58,9.8,9.54,16.37,14.88,21.18Z"/>
  <path class="cls-6" d="M240.46,288.17c-.55,2.49-1.38,6.05-4.05,9-2.61,2.88-6.1,4.21-15.3,5.4-4.59.59-11.13,1.21-19.38.9-4.2-.17-8.85-.57-13.91-1.35-5.21-.8-9.58-1.8-12.6-5.4-.42-.5-1.97-2.42-3.15-7.2-.84-3.44-1.81-9.6,0-17.69-.3-22.65-.6-45.29-.9-67.94-.1-13.05-.2-26.09-.3-39.14.63-5.75,2.26-9.85,3.57-12.45,3.77-7.51,8.29-9.56,10.12-17.21.29-1.23.38-3.4.56-7.76.37-8.94.14-14.87.11-18.56-.04-6.93.61-9.37,2.03-22.15.79-7.17,1.83-17.63,2.7-30.71-.63-.29-1.51-.83-2.03-1.8-.47-.89-.55-2,.56-5.73,1.41-4.68,2.45-5.99,1.69-7.65-.43-.96-1.06-1.14-1.24-2.25-.27-1.75.99-3.22,1.13-3.38,1.26-1.42,3.1-1.67,4.16-1.8,1.02-.12,1.98-.22,2.89-.3,5.76-.51,9.63-.19,16.23.3.88.07,2.79.21,4.28,1.58.24.22,1.72,1.58,1.57,3.26-.13,1.38-1.23,1.54-1.69,2.92-.48,1.47.43,2.24,1.58,5.63.93,2.74,1.65,4.97.78,7.08-.41,1.01-1.07,1.71-1.57,2.14.68,13.06,2.07,23.46,3.26,30.71,1.53,9.31,2.56,12.47,2.7,19.79.1,4.99-.27,9.16,0,18.9.14,5.08.21,7.62.45,8.55,2.17,8.39,8.5,9.8,12.6,18.44,1.11,2.36,2.45,6.05,2.7,11.25-.28,16.6-.4,30.67-.45,41.39-.23,43-.34,64.49.45,67.49.37,1.39,2.17,7.96.45,15.74Z"/>
  <path class="cls-8" d="M201.73,303.47c-4.2-.17-8.85-.57-13.91-1.35-5.21-.8-9.58-1.8-12.6-5.4-.42-.5-1.97-2.42-3.15-7.2-.84-3.44-1.81-9.6,0-17.69-.3-22.65-.6-45.29-.9-67.94-.1-13.05-.2-26.09-.3-39.14.63-5.75,2.26-9.85,3.57-12.45,3.77-7.51,8.29-9.56,10.12-17.21.29-1.23.38-3.4.56-7.76.37-8.94.14-14.87.11-18.56-.04-6.93.61-9.37,2.03-22.15.79-7.17,1.83-17.63,2.7-30.71-.63-.29-1.51-.83-2.03-1.8-.47-.89-.55-2,.56-5.73,1.41-4.68,2.45-5.99,1.69-7.65-.43-.96-1.06-1.14-1.24-2.25-.27-1.75.99-3.22,1.13-3.38,1.26-1.42,3.1-1.67,4.16-1.8,1.02-.12,1.98-.22,2.89-.3.02,2.71.03,5.78.05,9.21.02,4.9.03,7.35,0,12.38-.23,33.69-.35,50.54,1.37,61.91,2.07,13.67,4.27,16.91,2.07,24.08-3.02,9.82-9.67,11.94-14.45,21.33-3.97,7.8-2.69,12.84-2.06,31.64.97,29.32-1.7,31.19,0,64.66.94,18.67,1.97,21.94,2.75,24.08,3.58,9.8,9.54,16.37,14.88,21.18Z"/>
  <path class="cls-11" d="M472.05,161.57c6.06-2.57,12.12-5.14,18.19-7.71.63-.27.75-1.18.45-1.71-.37-.65-1.09-.71-1.71-.45-6.06,2.57-12.12,5.14-18.19,7.71-.63.27-.75,1.18-.45,1.71.37.65,1.09.71,1.71.45h0Z"/>
  <path class="cls-11" d="M312.65,73.79l-14.01-17.22c-.43-.53-1.32-.44-1.77,0-.52.51-.42,1.25,0,1.77l14.01,17.22c.43.53,1.32.44,1.77,0,.52-.51.42-1.25,0-1.77h0Z"/>
  <path class="cls-11" d="M290.49,180.05c-6.45-3.92-12.9-7.85-19.35-11.77-1.38-.84-2.64,1.32-1.26,2.16,6.45,3.92,12.9,7.85,19.35,11.77,1.38.84,2.64-1.32,1.26-2.16h0Z"/>
  <path class="cls-11" d="M296.68,298.22c1.61,0,1.61-2.5,0-2.5s-1.61,2.5,0,2.5h0Z"/>
  <path class="cls-11" d="M295.74,295.36c-5.79,3.39-11.58,6.79-17.37,10.18-1.39.81-.13,2.97,1.26,2.16,5.79-3.39,11.58-6.79,17.37-10.18,1.39-.81.13-2.97-1.26-2.16h0Z"/>
  <path class="cls-11" d="M445.3,318.03c4.89,5.81,9.78,11.62,14.68,17.43,1.04,1.23,2.8-.54,1.77-1.77-4.89-5.81-9.78-11.62-14.68-17.43-1.04-1.23-2.8.54-1.77,1.77h0Z"/>
  <path class="cls-11" d="M410.08,334.57v23.85c0,1.61,2.5,1.61,2.5,0v-23.85c0-1.61-2.5-1.61-2.5,0h0Z"/>
  <path class="cls-11" d="M412.04,71.52c1.66-5.46,3.31-10.93,4.97-16.39.47-1.54-1.94-2.2-2.41-.66l-4.97,16.39c-.47,1.54,1.94,2.2,2.41.66h0Z"/>
  <path class="cls-11" d="M461.5,198.88c3.97.94,7.94,1.87,11.91,2.81,1.56.37,2.23-2.04.66-2.41-3.97-.94-7.94-1.87-11.91-2.81-1.56-.37-2.23,2.04-.66,2.41h0Z"/>
  <path class="cls-11" d="M274.65,213.01l-10.09.95c-.67.06-1.25.53-1.25,1.25,0,.63.57,1.31,1.25,1.25l10.09-.95c.67-.06,1.25-.53,1.25-1.25,0-.63-.57-1.31-1.25-1.25h0Z"/>
  <g>
    <ellipse class="cls-10" cx="106.5" cy="27.12" rx="7.34" ry="10.32" transform="translate(37.14 112.37) rotate(-65.15)"/>
    <ellipse class="cls-1" cx="117.02" cy="32.5" rx="5.73" ry="9.29" transform="translate(38.35 125.03) rotate(-65.15)"/>
    <circle class="cls-10" cx="125.83" cy="36.95" r="5.85"/>
    <ellipse class="cls-5" cx="116.36" cy="23.15" rx="3.14" ry="9.35" transform="translate(7.89 71.22) rotate(-35.15)"/>
    <ellipse class="cls-7" cx="109.08" cy="25.79" rx="2.98" ry="12.96" transform="translate(39.84 113.94) rotate(-65.15)"/>
    <text class="cls-3" transform="translate(134.45 34.13) rotate(17.05)"><tspan x="0" y="0">!</tspan></text>
  </g>
</svg>