<?xml version="1.0" encoding="UTF-8"?>
<svg id="Lag_1" data-name="Lag 1" xmlns="http://www.w3.org/2000/svg" viewBox="0 0 539.13 640.54">
  <defs>
    <style>
      .cls-1 {
        fill: #b56c38;
      }

      .cls-2 {
        font-size: 60.84px;
      }

      .cls-2, .cls-3 {
        fill: #b39c3e;
        font-family: Noka-Black, Noka;
        font-weight: 800;
      }

      .cls-4, .cls-5 {
        stroke: #b56c38;
        stroke-miterlimit: 10;
        stroke-width: 1.5px;
      }

      .cls-4, .cls-6 {
        fill: #ebd3ab;
      }

      .cls-5 {
        fill: #f9f1e5;
      }

      .cls-7 {
        fill: #5f6b36;
      }

      .cls-3 {
        font-size: 60.69px;
      }
    </style>
  </defs>
  <g>
    <ellipse class="cls-6" cx="251.45" cy="318.27" rx="238.87" ry="238.83"/>
    <ellipse class="cls-7" cx="251.45" cy="318.27" rx="168.01" ry="167.99"/>
    <text class="cls-2" transform="translate(28.67 347) rotate(77.74)"><tspan x="0" y="0">Z</tspan></text>
    <text class="cls-2" transform="translate(37.98 387.58) rotate(67.01)"><tspan x="0" y="0">e</tspan></text>
    <text class="cls-2" transform="translate(54.71 425.15) rotate(57.78)"><tspan x="0" y="0">r</tspan></text>
    <text class="cls-2" transform="translate(71.34 451.78) rotate(48.43)"><tspan x="0" y="0">o</tspan></text>
    <text class="cls-2" transform="translate(99.7 482.16) rotate(41.05)"><tspan x="0" y="0"> </tspan></text>
    <text class="cls-2" transform="translate(111.24 493.11) rotate(33.38)"><tspan x="0" y="0">d</tspan></text>
    <text class="cls-2" transform="translate(149.63 517.63) rotate(22.01)"><tspan x="0" y="0">o</tspan></text>
    <text class="cls-2" transform="translate(190.04 533.44) rotate(10.92)"><tspan x="0" y="0">u</tspan></text>
    <text class="cls-2" transform="translate(233.43 541.33) rotate(-.52)"><tspan x="0" y="0">b</tspan></text>
    <text class="cls-2" transform="translate(277.28 539.99) rotate(-9.78)"><tspan x="0" y="0">t</tspan></text>
    <text class="cls-2" transform="translate(303.66 535.04) rotate(-15.14)"><tspan x="0" y="0"> </tspan></text>
    <text class="cls-2" transform="translate(319.18 531.55) rotate(-22.79)"><tspan x="0" y="0">a</tspan></text>
    <text class="cls-2" transform="translate(361.03 513.35) rotate(-34.32)"><tspan x="0" y="0">b</tspan></text>
    <text class="cls-2" transform="translate(398.3 487.12) rotate(-45.75)"><tspan x="0" y="0">o</tspan></text>
    <text class="cls-2" transform="translate(428.3 455.6) rotate(-57)"><tspan x="0" y="0">u</tspan></text>
    <text class="cls-2" transform="translate(450.87 419.15) rotate(-66.16)"><tspan x="0" y="0">t</tspan></text>
    <text class="cls-2" transform="translate(461.36 394.44) rotate(-71.45)"><tspan x="0" y="0"> </tspan></text>
    <text class="cls-2" transform="translate(465.95 380.89) rotate(-75.94)"><tspan x="0" y="0">i</tspan></text>
    <text class="cls-2" transform="translate(471.25 359.71) rotate(-82.19)"><tspan x="0" y="0">t</tspan></text>
    <text class="cls-3" transform="translate(83.6 246.22) rotate(-60.52)"><tspan x="0" y="0">Z</tspan></text>
    <text class="cls-3" transform="translate(100.3 215.96) rotate(-50.2)"><tspan x="0" y="0">e</tspan></text>
    <text class="cls-3" transform="translate(122.85 189.28) rotate(-40.58)"><tspan x="0" y="0">r</tspan></text>
    <text class="cls-3" transform="translate(141.56 172.42) rotate(-30.97)"><tspan x="0" y="0">o</tspan></text>
    <text class="cls-3" transform="translate(172.17 153.57) rotate(-19.08)"><tspan x="0" y="0">B</tspan></text>
    <text class="cls-3" transform="translate(209.96 140.46) rotate(-7.13)"><tspan x="0" y="0">u</tspan></text>
    <text class="cls-3" transform="translate(246.34 136.11) rotate(3.14)"><tspan x="0" y="0">z</tspan></text>
    <text class="cls-3" transform="translate(275.05 137.55) rotate(12.25)"><tspan x="0" y="0">z</tspan></text>
    <text class="cls-3" transform="translate(303.46 144.18) rotate(18.62)"><tspan x="0" y="0"> </tspan></text>
    <text class="cls-3" transform="translate(314.02 146.53) rotate(26.67)"><tspan x="0" y="0">B</tspan></text>
    <text class="cls-3" transform="translate(349.74 165.01) rotate(36.94)"><tspan x="0" y="0">r</tspan></text>
    <text class="cls-3" transform="translate(370.22 179.69) rotate(46.36)"><tspan x="0" y="0">e</tspan></text>
    <text class="cls-3" transform="translate(394.31 202.75) rotate(59.85)"><tspan x="0" y="0">w</tspan></text>
    <polygon class="cls-6" points="334.42 174.55 168.47 174.55 85.5 318.27 168.47 461.98 334.42 461.98 417.4 318.27 334.42 174.55"/>
  </g>
  <g>
    <ellipse class="cls-6" cx="251.45" cy="318.27" rx="238.87" ry="238.83"/>
    <ellipse class="cls-7" cx="251.45" cy="318.27" rx="168.01" ry="167.99"/>
    <polygon class="cls-6" points="334.42 174.55 168.47 174.55 85.5 318.27 168.47 461.98 334.42 461.98 417.4 318.27 334.42 174.55"/>
  </g>
  <g>
    <path class="cls-7" d="M294.3,469.88c-5.11-.1-10.96,2.34-15.27,6.2-4.25-20.39-10.75-49.94-14.22-84.84-3.19-31.96-5.31-58.87-6.7-78.44l12.7,1.05c2.05,21.2,5.64,53.3,12.01,92.07,3.83,23.27,7.75,44.57,11.48,63.96Z"/>
    <path class="cls-4" d="M217.33,254.95c-4.88-8.25-13.66-20.48-28.17-30.53-7.51-5.2-14.16-7.75-27.46-12.85-8.47-3.25-12.54-4.17-14.91-2.16-4.13,3.51-.46,13.78-.22,14.46,3.81,10.37,12.68,15.16,31.1,25.55,6.51,3.67,17.76,10.03,32.46,18.5l7.19-12.97Z"/>
    <path class="cls-4" d="M237.11,226.47c-1.49-1.95,9.2,6.91,5.78,3.4-3.97-4.08-11.15-11.35-23.52-19.41-6.81-4.44-17.47-11.4-25.18-12.65-5.97-.97-6.96,1.99-7.18,2.72-1.53,5.1,2.25,9.37,7.52,14.07,3.52,3.14,14.64,13.29,19.95,18.49l22.63-6.61Z"/>
    <path class="cls-4" d="M271.05,233.7c.41-2.72,2.66,11.4,2.63,6.18-.03-6.07-.18-16.94-5-30.99-2.66-7.74-6.81-19.85-13.68-24.65-5.32-3.72-9.38-1.04-10.37-.39-3.28,2.16-3.71,7.02-4.63,16.3-.42,4.26.07,22.42.37,30.27l30.67,3.28Z"/>
    <path class="cls-4" d="M270,305.03c13.68,12.44,25.77,21.7,34.84,28.17,9.83,7.02,16.72,11.19,24.17,9.34,4.54-1.13,9.76-4.62,10.97-9.64.32-1.33.91-5.01-6.38-15.42-6.34-9.06-9.78-13.96-16.61-17.94-12.01-6.99-24.51-5.28-28.91-4.45l-18.09,9.93Z"/>
    <path class="cls-5" d="M182.6,257.61l-12.01-5c-11.65-4.94-21.27-8.4-28.02-10.68-8.22-2.77-16.13-6.48-24.46-8.9-6.71-1.95-12.16-3.13-12.45-5.78-.32-2.87,5.58-5.7,6.67-6.23,7.17-3.44,17.04-4.15,44.04,4.89,7.1,2.38,16.58,5.83,27.58,10.68l13.46,7.12-14.79,13.9Z"/>
    <path class="cls-5" d="M219.74,231.81c-1.17-1.53-2.96-3.65-5.41-5.89-2.85-2.6-7.98-7.19-15.72-9.19-4.26-1.11-10.93-2.84-14.83.89-3.02,2.88-2.74,7.48-2.67,8.6.23,3.71,2.4,6.17,6.52,10.97,1.89,2.2,4.66,5.16,8.41,8.3l23.69-13.68Z"/>
    <path class="cls-5" d="M250.1,227.14l.41-3c.93-3.08,2.11-8.65.3-14.83-.73-2.5-2.17-5.83-10.08-13.94-10.47-10.73-15.71-16.1-21.94-16.01-5.28.07-11.3,3.08-13.64,8.01-2.64,5.54.26,11.63,4.74,21.05,3.46,7.27,7.29,12.74,10.08,16.31l3.34,6.41,26.8-4Z"/>
    <path class="cls-5" d="M272.9,233.7l2.22-3.04c10.88-12.21,19.46-21.63,25.21-27.87,6.53-7.11,12.24-13.22,10.38-17.5-1.3-2.99-5.72-3.72-8.3-4.15-11.27-1.87-21.06,5.04-26.1,8.6-2.19,1.55-9.04,6.62-15.12,15.72-4.82,7.21-7.21,14.04-8.45,18.68l-.52,3.34,20.68,6.23Z"/>
    <path class="cls-4" d="M300.76,253.32l3.78-1.67c12.17-6.36,22.04-11.98,28.91-16.01,3.51-2.06,31.1-18.44,58.27-44.04,5.9-5.56,13.69-13.36,11.56-18.68-1.27-3.18-5.62-4.36-7.56-4.89-7.85-2.14-15.08,1.12-19.13,3.11-12.8,6.3-19.88,12.74-28.91,19.57-15.58,11.78-17.25,9.8-32.03,20.91-10.35,7.78-18.87,15.76-25.8,23.13l-3.56,5.34,14.46,13.23Z"/>
    <path class="cls-5" d="M292.58,246.27l1.67-2.56c1.16-2.64,3.19-6.47,6.67-10.23,2.63-2.84,10.7-10.62,36.47-14.23,21.96-3.08,28.16.89,39.59-5.78,1.46-.85,13.8-8.22,12.45-15.12-1.16-5.93-11.77-8.3-16.46-9.34-10.99-2.45-20.12-.37-29.13,1.78-10.24,2.44-17.39,5.67-26.02,9.56-10.18,4.59-16.35,7.38-23.57,12.9-8.2,6.27-13.7,12.97-17.13,17.79l-2.34,3.67,17.79,11.57Z"/>
    <path class="cls-5" d="M304.7,266.4l4.23-.44c17.86-4.87,45.55-12.09,75.84-18.46,27.07-5.7,40.61-8.54,44.26-8.23,6.4.55,18.29,2.43,21.8-3.11,1.01-1.59,1.52-4.12.67-6.23-1.33-3.29-5.57-4.5-8.45-5.12-24.7-5.24-47.37-1.56-47.37-1.56-29.7,4.82-44.55,7.23-59.83,13.79-13.86,5.95-24.48,12.72-31.58,17.79l-4,2.78,4.45,8.78Z"/>
    <path class="cls-4" d="M304.03,276.34c20.71-2.77,37.89-4.71,50.26-6,29.47-3.09,44.2-4.64,49.37-4.67,11.69-.07,23.26-3.88,34.92-3.11,2.32.15,9.39.73,13.57-3.56.36-.37,2.88-2.96,2.22-5.34-.89-3.23-7.11-4.07-10.23-4.45-32.37-3.89-54.71-1.78-54.71-1.78-22.07,2.08-33.11,3.12-40.03,4.45-16.99,3.26-31.63,7.86-43.59,12.45l-1.78,12.01Z"/>
    <path class="cls-4" d="M172.99,269.51l-2.63-.22c-5.28.36-13.57.49-23.43-1.33-11.85-2.19-14.38-5.06-32.92-11.42-15.88-5.44-23.82-8.16-33.51-10.23-11.89-2.53-21.47-3.4-24.32-9.93-.15-.34-1.78-4.22,0-6.82,2.12-3.11,7.84-2.58,10.97-2.22,18.94,2.16,37.94,9.04,37.96,9.04,13.37,4.84,24.75,7.99,30.84,9.49,10.9,2.69,23.87,4.79,38.85,5.19l15.64-1.19-17.46,19.64Z"/>
    <path class="cls-4" d="M170.51,271.37c-9.06-.42-22.67-1.61-38.85-5.34-13.56-3.12-18.58-5.63-34.7-8.6,0,0-28.97-5.33-40.77,2.97-1.16.81-4.39,3.09-4,5.34.11.66.69,2.22,5.04,3.56,10.7,3.29,23.59-1.12,34.55-1.33,9.91-.19,13.56,3.14,24.61,6.38,11.98,3.5,29.79,6.06,54.56,1.04"/>
    <path class="cls-4" d="M186.67,294.5c-1.22,1.04-3.16,2.5-5.78,3.71-7.49,3.46-14.81,2.22-16.9,1.93-3.81-.52-6.05-.05-59.75,12.45-29.66,6.91-33.52,7.82-40.33,5.78-9.22-2.76-12.58-7.54-24.02-8.3-8.85-.59-15.92,1.66-19.13-2.52-1.64-2.14-1.73-5.28-.89-7.56,2.24-6.09,11.73-7.83,20.02-8.9,23.13-2.97,42.24-1.35,45.67-1.04,42.71,3.85,45.83,4.28,53.38,4.15,17.61-.3,31.88-3.16,41.07-5.49l6.67,5.78Z"/>
    <path class="cls-4" d="M194.53,299.39c-14.68,4.08-25.5,9.4-32.47,13.34-17.02,9.63-32.19,22.97-55.3,43.29-2.33,2.05-13.01,11.46-29.21,17.64-13.06,4.98-17.56,3.23-19.72,1.48-4.26-3.45-3.81-10.45-3.71-11.71.7-8.39,7.26-15.79,34.84-32.17,17.29-10.27,29.09-17.29,48.63-25.21,17.15-6.95,32.15-11.32,43.29-14.09l13.64,7.41Z"/>
    <path class="cls-5" d="M203.21,305.98c-4.18,2.75-11.07,7.23-19.72,12.6-29.33,18.24-31.27,17.22-42.26,26.1-9.57,7.73-11.94,11.6-20.61,15.12-8.01,3.26-20.95,6.04-24.46,1.04-3.38-4.81,3.3-14.86,5.93-18.83,17.38-26.19,61.06-37.42,87.92-42.26l13.2,6.23Z"/>
    <path class="cls-5" d="M203.51,304.65c-11.05,4.38-19.36,9.48-24.91,13.34-17.56,12.23-26.27,25.25-30.25,32.17-3.04,5.3-9.42,16.41-5.78,20.46.53.59,2.87,2.81,12.16,0,15.52-4.69,24.85-15.7,38.99-31.73,5.07-5.75,13.88-15.68,25.5-28.47l-15.72-5.78Z"/>
    <path class="cls-4" d="M232.04,309.18c-4.85,8.26-11.29,21.87-13.05,39.44-.91,9.1.09,16.15,2.08,30.25,1.27,8.98,2.43,12.99,5.34,14.09,5.07,1.91,12.28-6.28,12.75-6.82,7.22-8.36,7.11-18.44,7.27-39.59.05-7.47.17-20.4.44-37.36h-14.83Z"/>
    <path class="cls-5" d="M218.04,309.3c-7.57,8.19-17.5,20.89-25.21,38.4-5,11.35-6.94,20.86-10.82,39.88-4.56,22.33-3.49,28.59.3,32.03,4.11,3.73,10.26,3.08,12.01,2.82,13.49-2.04,20.71-19.8,24.17-28.32,4.09-10.06,5.5-18.49,8.01-46.11,1.34-14.81,2.3-27.4,2.97-36.92l-11.42-1.78Z"/>
    <path class="cls-5" d="M254.93,303.02c-.21,7.83.41,18.81,4.12,31.21,4.45,14.91,11.17,24.54,15.82,31.07,7.63,10.73,12.83,18.04,19.44,17.55,7.78-.58,12.23-11.6,12.53-12.38,3.54-9.09.68-17.89-4.92-35.16-2.57-7.94-5.45-16.61-11.93-26.64-4.22-6.54-8.54-11.45-11.93-14.87l-23.12,9.23Z"/>
    <path class="cls-5" d="M237.38,310.22c-2.91,14.93-4.38,27.6-5.19,37.07-1.91,22.52-.34,30.46.3,33.36.6,2.72,3.44,14.89,12.6,27.43,5.46,7.48,10.17,13.91,16.01,13.49,9.28-.67,14.1-18.06,14.38-19.13,3.58-13.44-.65-25.11-3.26-32.77-4.85-14.21-10.86-34.36-16.31-61.24l-18.53,1.78Z"/>
    <path class="cls-4" d="M299.65,285.9c5.62-.29,14.05-.41,24.17.74,7.54.86,31.63,4.19,60.2,19.42,21.79,11.62,37.58,25.56,53.82,24.02,1.97-.19,6.82-.7,8.01-3.56,1.45-3.49-3.18-8.99-10.38-15.27-31.48-27.44-61.53-34.99-61.53-34.99-29.84-7.49-55.31-3.21-69.24.3l-5.04,9.79"/>
    <path class="cls-5" d="M283.79,300.88c21.07.13,36.78,4.15,46.85,7.56,17.32,5.86,54.32,22.19,78.88,32.32,4.31,1.78,13.92,5.6,20.02,1.33,2.2-1.54,4.49-4.52,4.3-7.71-.25-4.17-4.64-7.02-6.67-8.3-34.53-21.79-51.8-32.68-63.31-36.18-13.57-4.13-34.64-8.88-61.24-8.3l-18.83,19.28Z"/>
    <path class="cls-5" d="M285.72,299.1c8.62,11.07,16.15,20.64,22.24,28.32,38.26,48.28,16.44,18.48,28.62,34.1,5.38,6.9,14.07,18.4,26.69,22.54,6.09,2,7.99.6,8.6,0,2.28-2.28.44-7.63-.89-10.97-11.88-29.95-29.21-47.15-29.21-47.15-9.21-9.14-24.79-22.4-47.89-33.06l-8.15,6.23Z"/>
    <path class="cls-5" d="M172.7,280.82c-18.64-1.36-38.22-2.87-63.72-4.89,0,0-30.32-2.41-39.37-14.23-.75-.99-2.88-3.77-2.11-6.45,1.22-4.23,8.88-5.43,12.12-5.89,18.11-2.62,35.57,5.5,54.6,10.9,7.6,2.15,19.23,4.94,34.14,6.45l6.97-.3-2.63,14.42Z"/>
    <path class="cls-5" d="M177.41,288.64c-4.14,1.43-10.85,3.57-19.27,5.49-24.56,5.58-34.03,2.44-60.94,7.12-18.07,3.14-27.11,4.71-32.77,9.49-5.02,4.24-12.84,13.33-25.8,21.65-1.76,1.13-4.83,3.03-7.27,1.93-4.02-1.81-4.34-10.87-3.11-16.61,3.78-17.72,27.2-26.73,35.58-29.95,13-5,23.98-6.2,39.14-7.12,17.17-1.04,40.68-1.78,69.09-.59l5.34,8.6Z"/>
    <path class="cls-5" d="M304.99,278.56c12.6-.5,23.21-.32,31.14,0,14.53.59,24.42,1.03,36.7,3.78,2.94.66,2.46.65,26.91,8.9,14.8,4.99,30.82,6.63,44.93,13.34,3.72,1.77,9.74,4.89,14.9,2.45,3.28-1.55,6.03-5.26,6-8.9-.03-4.16-3.67-8.58-18.9-16.01-20.57-10.04-37.91-13.71-39.37-14.01-4-.82-20.37-4.05-45.15-4.23-13.64-.1-32,.71-53.6,4.45l-3.56,10.23Z"/>
    <path class="cls-1" d="M170.21,281.01c1.81,10.36,11.7,16.43,19.35,21.13,20.46,12.56,41.88,11.12,55.16,10.23,1.4-.09,30.71-2.35,53.15-18.06,4.24-2.97,8.65-6.71,11.12-12.74,3.89-9.5.57-18.86-.66-22.35-7.43-20.95-30.25-29.5-35.81-31.58-19.92-7.46-37.39-3.66-43.59-2.22-18.5,4.29-30.15,14.01-35.36,18.46-9.97,8.52-25.97,22.19-23.35,37.14Z"/>
  </g>
</svg>